<?xml version="1.0" encoding="UTF-8"?>
<svg id="_图层_1" data-name="图层 1" xmlns="http://www.w3.org/2000/svg" viewBox="-18 -18 273.38 273.38">
  <defs>
    <style>
      .cls-1 {
        fill: #ebebdf;
      }

      .cls-2 {
        fill: #e9eade;
      }

      .cls-3 {
        fill: #e2e4d3;
      }

      .cls-4 {
        fill: #faf8f1;
      }

      .cls-5 {
        fill: #efefe6;
      }

      .cls-6 {
        fill: #bfcba2;
      }

      .cls-7 {
        fill: #b0bf91;
      }

      .cls-8 {
        fill: #becaa1;
      }

      .cls-9 {
        fill: #cfd7b4;
      }

      .cls-10 {
        fill: #191b15;
      }

      .cls-11 {
        fill: #191919;
      }

      .cls-12 {
        fill: #1a1a19;
      }
    </style>
  </defs>
  <path class="cls-12" d="M44.33,1.49C48.84,0,53.39-.15,57.98,1.1l4.03,1.76c1.76,1.21,3.41,2.55,4.97,4,.37,.43,.75,.86,1.12,1.29,.99,1.68,2.04,3.32,2.91,5.07,.5,1.01,.31,2.75,1.46,2.92,1.04,.16,2.25-.77,3.38-1.21,.38-.02,.75-.05,1.02-.37,1.38-.32,2.74-.69,4.03-1.28,.85-.1,1.66-.34,2.43-.7,6.3-1.58,12.69-2.75,19.12-3.67,1.15-.06,2.31,0,3.43-.36,1.66-.01,3.32-.04,4.96-.36,5.04,0,10.08,0,15.12,0h-.02c1.88,.33,3.79,.33,5.69,.37,.89,.33,1.82,.3,2.75,.31,.95,.34,1.95,.32,2.94,.36,.78,.33,1.61,.31,2.44,.35,2.46,.44,4.91,.87,7.37,1.31,.99,.38,2.01,.61,3.07,.68,1.3,.5,2.64,.81,4.01,.99,.9,.25,1.8,.5,2.69,.75,1.31,.55,2.66,.98,4.05,1.26,.61,.41,1.3,.61,2.02,.71,.24,.29,.58,.31,.92,.34,.29,.14,.59,.27,.87,.42,1.27,.69,1.9,.28,1.96-1.13,.55-1.23,1.11-2.46,1.66-3.69,.14-.22,.27-.44,.41-.66,.41-.4,.73-.85,.92-1.4,.15-.2,.29-.41,.44-.61,1.32-1.34,2.64-2.67,3.97-4.01,.12-.08,.24-.17,.36-.25,2.06-1.49,4.38-2.48,6.7-3.47,1.03-.23,2.07-.45,3.1-.68,2.55-.26,5.08-.09,7.61,.31,.8,.23,1.59,.46,2.39,.69,1.82,.99,3.63,1.99,5.45,2.98,.22,.36,.55,.59,.94,.74,1.2,1.34,2.41,2.69,3.61,4.03,.92,1.81,1.84,3.62,2.77,5.42,0,.35,.03,.69,.3,.95,.05,.48,.03,.99,.38,1.39,.04,.56,0,1.13,.3,1.64,.86,8.56-1.66,15.82-8.34,21.44-.81,.68-.23,1.02,.12,1.45,4.63,5.67,8.42,11.89,11.7,18.41,1.74,3.46,3.29,7.02,4.92,10.54,.35,.81,.71,1.61,1.06,2.42,.4,1.87,1.26,3.57,1.98,5.32,.47,1.24,.94,2.47,1.41,3.71,.29,1.39,.58,2.78,1.37,3.99,.44,1.37,.87,2.75,1.31,4.12-.05,.47,0,.92,.37,1.27,1,3.6,2,7.2,3,10.8h0c1.27,5.9,2.7,11.78,3.79,17.72,2.78,15.07,4.56,30.24,3.93,45.61-.11,2.74-.44,5.46-.67,8.2-.25,.58-.32,1.18-.29,1.8-.02,.19-.04,.37-.06,.56-.21,1.05-.41,2.09-.62,3.14-.32,1.23-.65,2.47-.97,3.7-.01,.11-.02,.23-.04,.34-.32,.9-.64,1.8-.96,2.7-.82,2.08-1.64,4.16-2.46,6.23-.29,.15-.34,.41-.34,.7-3.06,5.74-7.15,10.64-12.08,14.85-8.98,6.83-19.3,10.57-30.13,13.13-9.95,2.35-20.05,3.73-30.21,4.77-15.02,1.53-30.09,2-45.17,1.7-18.98-.38-37.84-1.88-56.41-6.1-14.12-3.21-27.69-7.63-38.59-17.82-.66-.67-1.31-1.34-1.97-2.02-.15-.4-.4-.7-.76-.92-.3-.37-.61-.73-.91-1.1-.14-.2-.29-.39-.43-.59-.87-1.26-1.75-2.52-2.62-3.78-.13-.22-.26-.43-.39-.65-2.7-5.18-4.79-10.57-5.97-16.31-.65-3.12-.81-6.31-1.39-9.44-.02-.5-.05-1.01-.07-1.51,0-5.16,0-10.32,0-15.48,0-.23,.01-.45,.02-.68,.14-.52,.22-1.04,.06-1.57,.35-1.25,.31-2.53,.29-3.81,0-.2,.02-.39,.03-.59,.32-1.02,.34-2.06,.28-3.12,.02-.19,.03-.39,.05-.58,.27-.8,.35-1.61,.28-2.45,.02-.2,.03-.4,.05-.6,.3-.67,.32-1.38,.28-2.09,.03-.29,.06-.59,.08-.88,.31-.57,.3-1.19,.27-1.81,.02-.19,.04-.38,.06-.57,.29-.56,.33-1.17,.29-1.79,.1-.07,.11-.16,.04-.26,.28-.56,.33-1.15,.3-1.76,.1-.08,.11-.17,.03-.26,.28-.55,.37-1.14,.31-1.75,.3-.62,.37-1.29,.36-1.97,.39-1.1,.58-2.25,.66-3.42,.28-.51,.36-1.06,.35-1.63,.27-.43,.35-.9,.31-1.4,.27-.6,.44-1.23,.4-1.9,.38-.85,.62-1.75,.65-2.68,.26-.34,.34-.72,.3-1.14,.48-1.39,.83-2.82,1.05-4.27,.38-.77,.59-1.59,.65-2.45,.27-.38,.36-.81,.35-1.27,.48-1.11,.82-2.25,.98-3.45,.25-.38,.38-.8,.36-1.26,.27-.31,.35-.68,.32-1.09,.58-1.4,1.04-2.83,1.35-4.31,.28-.3,.37-.67,.35-1.07,1.02-2.53,1.92-5.1,2.66-7.73,.28-.29,.37-.63,.36-1.02,.35-.51,.57-1.07,.64-1.68,.29-.27,.38-.62,.39-1,.45-.74,.78-1.53,.95-2.38,.29-.27,.38-.61,.38-.99,.27-.24,.34-.56,.36-.9,.11-.26,.21-.52,.32-.78,.1-.23,.19-.46,.29-.69,.3-.26,.39-.61,.43-.98,.33-.39,.54-.84,.59-1.35,.41-.49,.63-1.06,.73-1.68,.34-.4,.53-.87,.6-1.39,.5-.71,.86-1.48,1.07-2.32,.78-1.29,1.47-2.63,1.96-4.06,.58-.83,1.01-1.74,1.34-2.7,.5-.58,.83-1.25,1.03-1.99,1.35-2.36,2.71-4.72,4.06-7.08,.35-.26,.54-.62,.63-1.04l2.1-3.32c.67-.98,1.34-1.96,2.01-2.93,1.02-1.37,2.05-2.75,3.07-4.12,1.47-1.02,.85-1.78-.31-2.47-.61-.64-1.22-1.29-1.82-1.93-.43-.57-.86-1.15-1.3-1.72-.67-1.15-1.34-2.31-2.01-3.46-.23-.53-.45-1.06-.68-1.59-.34-1.14-.68-2.28-1.02-3.42-.52-3.19-.53-6.37,.02-9.55,.33-.42,.3-.94,.38-1.43l.28-.96c.23-.59,.46-1.17,.7-1.76,.33-.65,.66-1.31,.98-1.96,.44-.69,.89-1.39,1.33-2.08,1.24-1.32,2.48-2.64,3.71-3.96,.19-.15,.38-.3,.56-.45l4.46-2.63c.26-.11,.52-.21,.79-.32ZM123.3,222.81c13.35-.16,29.29-1.06,45.13-3.37,10.72-1.57,21.33-3.66,31.47-7.66,15.88-6.27,25.79-17.58,29.2-34.42,1.78-8.8,2.09-17.69,1.49-26.62-1.44-21.35-5.33-42.25-11.87-62.63-3.72-11.61-8.26-22.87-14.45-33.43-9.56-16.32-23.02-28.07-40.82-34.65-15.6-5.77-31.77-8.07-48.36-7.64-13.89,.36-27.43,2.58-40.47,7.52-11.84,4.49-22.19,11.21-30.56,20.77-8.13,9.29-13.98,20.01-19.01,31.19-9.83,21.83-16.27,44.64-19.01,68.44-1.27,10.99-1.89,22.02-.15,33.03,1.36,8.6,4.13,16.64,9.74,23.49,5.37,6.56,12.36,10.8,20.09,13.97,10.29,4.22,21.07,6.58,32,8.33,17.54,2.8,35.21,3.78,55.6,3.67ZM204.18,22.89c-.03-6.27-2.23-11.25-5.8-14.4-9.75-8.59-24.15-3.67-28.1,8.76-.3,.93,.1,1.17,.78,1.48,9.33,4.27,17.53,10.13,24.57,17.59,.67,.71,1.05,.67,1.73,.07,4.45-3.86,6.71-8.71,6.82-13.5Zm-169.44-.02c.27,4.67,2.32,9.46,6.58,13.25,.55,.49,.85,.63,1.45-.01,6.93-7.52,15.17-13.22,24.4-17.52,.82-.38,1.19-.72,.89-1.74-1.92-6.6-8.2-11.81-15.06-12.4-9.8-.84-18.17,7.16-18.27,18.43Z"/>
  <path class="cls-5" d="M228.55,191.74c.82-2.08,1.64-4.16,2.46-6.23,1.25-.57,1.3-1.56,.96-2.7l.04-.34c1.12-1.03,1.48-2.25,.97-3.7,.21-1.05,.41-2.09,.62-3.14,.13,.23-.08,.6,.38,.83-.03-.54,.17-1.03-.32-1.39-.03-.62,.04-1.23,.29-1.8,.05,.38,.09,.76,.2,1.63,1.32-7.49,1.23-14.56,1.52-21.63,0,2.07-.05,4.14,.01,6.21,.06,2.29-.2,4.57,.27,6.86,.24,1.14-.46,2.28-.73,3.38-.41,1.67,.38,3.13,.15,4.73-.37,2.62-.6,5.25-.45,7.94,.21,3.69-.67,7.29-2.04,10.75-1.21,3.06-2.34,6.15-3.45,9.24-1.1,3.07-3.21,5.49-5.28,7.88-2.69,3.11-5.63,5.99-8.85,8.59-1.23,.99-2.68,1.55-3.97,2.44-5.69,3.92-11.98,6.64-18.68,8.31-5.81,1.45-11.64,2.94-17.55,3.87-4.21,.66-8.41,1.52-12.75,1.6-4.14,.08-8.27,.98-12.41,1.5-1.38,.17-2.77,.38-4.16,.4-4.03,.05-8.04,.41-12.07,.41-3.31,0-6.6-.2-9.89-.23-3.37-.03-6.74-.04-10.12-.09-2.72-.04-5.42-.23-8.12-.28-1.98-.04-3.97-.03-5.97-.07-5.42-.11-10.8-.7-16.18-1.17-6.8-.59-13.63-1.18-20.36-2.5-7.33-1.44-14.59-3.11-21.65-5.61-4.04-1.43-8.25-2.47-12-4.56-5.24-2.93-10.31-6.08-14.42-10.67-3.17-3.55-5.89-7.37-8.47-11.33-1.14-1.75-1.61-3.8-2.36-5.72-1.66-4.28-2.49-8.77-3.07-13.31-.09-.71-.36-1.4-.52-2.11-.14-.59-.53-1.28-.21-1.78,1.45-2.28,0-4.33-.38-6.47-.2-1.1,.78-2.02,.7-3.15,.04,.53,.07,1.07,.11,1.6,.07,0,.14,0,.21,.01,.04-.59,.09-1.19,.13-1.79,.58,3.13,.75,6.31,1.39,9.44,1.19,5.74,3.27,11.13,5.97,16.31-1.1,.24-.59-1.48-1.66-1.35-.38,3.55,2.14,6,3.41,8.89,.93,2.12,2.51,3.93,4.03,5.73,1.91,2.26,3.66,4.64,6.04,6.46,4.4,3.36,8.89,6.65,14.17,8.47,7.32,2.52,14.57,5.34,22.23,6.76,4.32,.8,8.62,1.78,12.98,2.34,4.47,.57,9.03,.46,13.48,1.14,5.58,.86,11.2,1.22,16.79,1.49,9.16,.44,18.36,.25,27.54,.33,3.84,.03,7.73,.27,11.58-.22,.68-.09,1.25,.34,1.97,.22,2.19-.37,4.4-.82,6.61-.84,6.04-.06,11.97-1.09,17.95-1.73,6.7-.72,13.37-1.75,19.92-3.2,6.84-1.52,13.61-3.54,19.82-7.03,4.18-2.35,8.36-4.62,11.85-8.04,1.41-1.38,2.62-2.85,3.9-4.32,3.91-4.47,6.41-9.6,7.48-15.43,0-.11,0-.22,0-.34,.66-.53,.07-1.01-.07-1.5Z"/>
  <path class="cls-9" d="M123.3,222.81c-20.39,.11-38.06-.87-55.6-3.67-10.93-1.75-21.71-4.11-32-8.33-7.72-3.17-14.72-7.41-20.09-13.97-5.6-6.85-8.38-14.88-9.74-23.49-1.74-11.01-1.12-22.05,.15-33.03,2.74-23.8,9.18-46.61,19.01-68.44,5.03-11.18,10.88-21.9,19.01-31.19,8.37-9.56,18.72-16.29,30.56-20.77,13.03-4.94,26.58-7.16,40.47-7.52,16.59-.44,32.76,1.87,48.36,7.64,17.79,6.58,31.26,18.33,40.82,34.65,6.18,10.55,10.72,21.82,14.45,33.43,6.54,20.38,10.43,41.28,11.87,62.63,.6,8.93,.3,17.82-1.49,26.62-3.41,16.84-13.32,28.15-29.2,34.42-10.14,4-20.75,6.09-31.47,7.66-15.84,2.31-31.78,3.21-45.13,3.37Zm-29.96-97.5c0,3.93-.09,7.85,.02,11.78,.15,5.3,1.16,10.44,3.71,15.16,2.66,4.91,6.35,8.81,11.67,10.82,4.22,1.59,8.59,2.13,13.14,1.66,3.34-.34,6.53-1.05,9.43-2.65,6.42-3.52,10.01-9.19,11.86-16.13,1.58-5.9,1.63-11.93,1.62-17.96-.01-8.15,.42-16.33-1.3-24.4-1.23-5.78-3.29-11.22-7.28-15.62-6.02-6.63-13.87-8.04-22.26-6.57-7.45,1.3-12.62,5.94-16.05,12.56-3.09,5.97-4.19,12.46-4.52,19.07-.2,4.08-.04,8.19-.04,12.28Zm-40.07-31.33c.05,5.13,4.22,9.14,9.45,9.06,5-.07,8.99-4.31,8.89-9.45-.09-5.04-4.12-8.92-9.24-8.89-5.03,.03-9.14,4.22-9.1,9.27Zm109.28,.21c.14,5.07,4.2,8.94,9.28,8.85,5.11-.09,9.11-4.37,8.98-9.57-.13-4.86-4.37-8.9-9.22-8.79-5.17,.11-9.17,4.33-9.03,9.51Z"/>
  <path class="cls-3" d="M15.62,202.97c10.9,10.19,24.47,14.62,38.59,17.82,18.56,4.22,37.43,5.72,56.41,6.1,15.09,.3,30.15-.17,45.17-1.7,10.16-1.03,20.26-2.42,30.21-4.77,10.83-2.56,21.16-6.31,30.13-13.13,.24,.38,.45,.15,.66-.03,.96-.85,1.92-1.71,2.89-2.54,.26-.23,.49-.76,.94-.36,.42,.37,.18,.81-.04,1.22-.23,.43-.64,.65-1.07,.74-.99,.2-1.4,.72-1.35,1.76,.06,1.17-.68,2.06-1.59,2.59-2.23,1.3-4.08,3.12-6.02,4.73-2.86,2.38-6.1,4.04-9.35,5.36-4.95,2.03-10.12,3.57-15.41,4.79-5.55,1.28-11.08,2.5-16.73,2.95-4,.32-7.93,1.18-11.93,1.39-1.84,.1-3.58,.89-5.46,.7-3.93-.39-7.8,.53-11.74,.5-4.17-.04-8.35,.69-12.53,.46-5.11-.27-10.21-.35-15.31-.28-6.1,.08-12.18-.09-18.24-.72-5.6-.59-11.23-.55-16.82-1.25-4.47-.55-8.96-.9-13.41-1.64-5.59-.93-11.02-2.57-16.51-3.96-2.19-.56-4.12-1.84-6.33-2.12-2.79-.35-5.23-1.6-7.72-2.68-4.21-1.84-7.69-4.9-11.52-7.37-2.2-1.43-3.25-3.78-4.89-5.62-.85-.95-1.4-2.14-2.67-2.79-.63-.32-1.14-.95-.74-1.82h0c.94,.33,1.17,1.68,2.37,1.65Z"/>
  <path class="cls-8" d="M204.18,22.89c-.11,4.79-2.37,9.64-6.82,13.5-.68,.59-1.06,.63-1.73-.07-7.04-7.47-15.24-13.32-24.57-17.59-.68-.31-1.08-.55-.78-1.48,3.95-12.43,18.36-17.35,28.1-8.76,3.57,3.15,5.77,8.14,5.8,14.4Z"/>
  <path class="cls-6" d="M34.74,22.87c.1-11.26,8.47-19.27,18.27-18.43,6.86,.59,13.14,5.8,15.06,12.4,.3,1.02-.07,1.36-.89,1.74-9.24,4.3-17.48,10.01-24.4,17.52-.59,.64-.89,.51-1.45,.01-4.26-3.79-6.31-8.58-6.58-13.25Z"/>
  <path class="cls-2" d="M13.25,201.32c-.41,.87,.11,1.5,.74,1.82,1.27,.65,1.82,1.84,2.67,2.79,1.65,1.84,2.69,4.19,4.89,5.62,3.83,2.48,7.31,5.53,11.52,7.37,2.48,1.09,4.92,2.34,7.72,2.68,2.21,.27,4.14,1.56,6.33,2.12,5.49,1.39,10.92,3.03,16.51,3.96,4.44,.74,8.94,1.09,13.41,1.64,5.6,.69,11.23,.66,16.82,1.25,6.06,.64,12.15,.81,18.24,.72,5.1-.07,10.21,0,15.31,.28,4.18,.22,8.36-.5,12.53-.46,3.93,.04,7.81-.89,11.74-.5,1.88,.18,3.62-.61,5.46-.7,4-.21,7.93-1.07,11.93-1.39,5.65-.45,11.18-1.67,16.73-2.95,5.29-1.22,10.46-2.77,15.41-4.79,3.24-1.33,6.49-2.99,9.35-5.36,1.93-1.61,3.79-3.43,6.02-4.73,.91-.53,1.65-1.42,1.59-2.59-.05-1.04,.36-1.56,1.35-1.76,.43-.09,.84-.31,1.07-.74,.22-.41,.46-.85,.04-1.22-.45-.4-.68,.14-.94,.36-.97,.84-1.93,1.69-2.89,2.54-.21,.19-.42,.41-.66,.03,4.93-4.22,9.03-9.11,12.08-14.85,.14,.27,.27,.54,.41,.81,0,.11,0,.22,0,.34-1.44,2.29-3.01,4.51-3.51,7.27-.12,.64-.39,1.32-.79,1.83-2.04,2.63-3.86,5.41-5.75,8.14-.28,.41-.65,.82-1.08,1.05-2.42,1.29-4.11,3.48-6.4,4.99-2.8,1.85-5.7,3.59-8.67,4.96-5.44,2.53-11.22,4.35-17.11,5.63-3.8,.83-7.63,1.69-11.48,2.06-5.15,.49-10.28,1.22-15.4,1.88-5.14,.66-10.31,.97-15.45,1.41-6.82,.59-13.72,.2-20.59,.13-8.11-.08-16.23,.33-24.34-.31-3.61-.28-7.28-.15-10.83-.78-5.23-.92-10.54-.77-15.78-1.49-4.8-.66-9.57-1.48-14.3-2.43-5.85-1.18-11.52-3.1-17.21-4.93-8.82-2.84-16.69-7-22.77-14.19-1.4-1.66-2.7-3.4-4.18-5.01-1.44-1.57-2.84-3.39-2.43-5.84,.38,0,.48,.72,.99,.39,.14,.2,.29,.39,.43,.59-.14,.12-.28,.25-.41,.37,.16,1.01,.96,1.48,1.68,2.02Z"/>
  <path class="cls-1" d="M10.55,197.96c-.41,2.45,.99,4.27,2.43,5.84,1.48,1.61,2.78,3.35,4.18,5.01,6.07,7.19,13.95,11.35,22.77,14.19,5.69,1.83,11.36,3.75,17.21,4.93,4.73,.95,9.5,1.77,14.3,2.43,5.25,.72,10.55,.58,15.78,1.49,3.55,.62,7.22,.49,10.83,.78,8.11,.64,16.23,.23,24.34,.31,6.87,.07,13.77,.45,20.59-.13,5.14-.44,10.31-.75,15.45-1.41,5.12-.66,10.25-1.39,15.4-1.88,3.86-.37,7.68-1.23,11.48-2.06,5.89-1.28,11.67-3.11,17.11-5.63,2.96-1.38,5.87-3.11,8.67-4.96,2.29-1.51,3.98-3.7,6.4-4.99,.43-.23,.79-.64,1.08-1.05,1.89-2.73,3.71-5.51,5.75-8.14,.4-.51,.67-1.19,.79-1.83,.5-2.76,2.07-4.98,3.51-7.27-1.07,5.83-3.57,10.96-7.48,15.43-1.28,1.46-2.5,2.94-3.9,4.32-3.49,3.42-7.67,5.69-11.85,8.04-6.2,3.5-12.98,5.51-19.82,7.03-6.55,1.45-13.22,2.49-19.92,3.2-5.98,.64-11.91,1.67-17.95,1.73-2.21,.02-4.42,.47-6.61,.84-.72,.12-1.29-.3-1.97-.22-3.85,.49-7.75,.25-11.58,.22-9.18-.08-18.38,.11-27.54-.33-5.59-.27-11.21-.63-16.79-1.49-4.45-.68-9.01-.57-13.48-1.14-4.35-.56-8.65-1.54-12.98-2.34-7.66-1.42-14.91-4.24-22.23-6.76-5.28-1.82-9.76-5.11-14.17-8.47-2.38-1.82-4.13-4.2-6.04-6.46-1.52-1.8-3.1-3.61-4.03-5.73-1.27-2.89-3.8-5.34-3.41-8.89,1.08-.13,.56,1.59,1.66,1.35,.13,.22,.26,.43,.39,.65-.22,1.5,1.33,2.14,1.63,3.39Z"/>
  <path class="cls-5" d="M10.55,197.96c-.29-1.25-1.85-1.89-1.63-3.39,.87,1.26,1.75,2.52,2.62,3.78-.51,.33-.61-.39-.99-.39Z"/>
  <path class="cls-4" d="M232.99,178.77c.51,1.45,.14,2.67-.97,3.7,.32-1.23,.65-2.47,.97-3.7Z"/>
  <path class="cls-4" d="M231.98,182.81c.33,1.13,.29,2.13-.96,2.7,.32-.9,.64-1.8,.96-2.7Z"/>
  <path class="cls-3" d="M13.25,201.32c-.72-.54-1.52-1.01-1.68-2.02,.54,.06,.62,.96,1.33,.73,.36,.22,.61,.53,.76,.92-.13,.12-.26,.24-.4,.36h0Z"/>
  <path class="cls-5" d="M13.25,201.32c.13-.12,.26-.24,.4-.36,.66,.67,1.31,1.34,1.97,2.02-1.2,.04-1.42-1.32-2.37-1.65Z"/>
  <path class="cls-5" d="M12.89,200.03c-.7,.23-.78-.66-1.33-.73,.14-.12,.28-.25,.41-.37,.3,.37,.61,.73,.91,1.1Z"/>
  <path class="cls-1" d="M228.62,193.24c-.14-.27-.27-.54-.41-.81,0-.29,.05-.55,.34-.7,.13,.5,.72,.97,.07,1.5Z"/>
  <path class="cls-4" d="M233.67,175.07c.49,.36,.29,.84,.32,1.39-.46-.23-.25-.6-.38-.83,.02-.19,.04-.37,.06-.56Z"/>
  <path class="cls-7" d="M93.34,125.31c0-4.09-.16-8.2,.04-12.28,.33-6.62,1.43-13.1,4.52-19.07,3.43-6.62,8.61-11.26,16.05-12.56,8.39-1.47,16.24-.06,22.26,6.57,4,4.4,6.05,9.84,7.28,15.62,1.72,8.07,1.29,16.25,1.3,24.4,.01,6.03-.04,12.06-1.62,17.96-1.85,6.93-5.44,12.61-11.86,16.13-2.91,1.59-6.1,2.3-9.43,2.65-4.55,.47-8.92-.07-13.14-1.66-5.32-2.01-9.01-5.9-11.67-10.82-2.56-4.72-3.56-9.85-3.71-15.16-.11-3.92-.02-7.85-.02-11.78Zm25.99-28.06v-.02c-2.3,0-4.6,.02-6.9,0-1.4-.01-2.23,.64-2.49,1.99-.52,2.68,.83,4.8,3.47,5.43,.82,.19,1.65,.4,2.48,.4,1.17,0,1.47,.47,1.47,1.61-.04,9.98-.04,19.97,0,29.95,0,1.01-.33,1.63-1.12,2.23-2.73,2.06-5.4,4.2-8.1,6.3-1.52,1.19-1.89,2.34-.97,3.36,1.14,1.28,2.17,.56,3.2-.26,2.55-2.02,5.15-3.97,7.68-6.01,.83-.67,1.39-.74,2.27-.02,2.62,2.11,5.34,4.09,8,6.16,1.04,.81,2.04,1.27,3.07,.08,.82-.96,.51-2.15-.76-3.14-2.74-2.13-5.47-4.29-8.25-6.38-.81-.6-1.08-1.26-1.08-2.25,.04-9.48,.02-18.96,.03-28.43,0-3.01,.01-3.01,2.96-3.46,2.92-.45,4.36-2.02,4.4-4.8,.03-1.82-.76-2.68-2.63-2.71-2.24-.04-4.49-.01-6.73-.01Z"/>
  <path class="cls-11" d="M53.27,93.97c-.05-5.06,4.06-9.24,9.1-9.27,5.12-.03,9.15,3.85,9.24,8.89,.1,5.14-3.89,9.37-8.89,9.45-5.23,.08-9.4-3.93-9.45-9.06Z"/>
  <path class="cls-11" d="M162.55,94.19c-.14-5.18,3.86-9.4,9.03-9.51,4.85-.11,9.09,3.94,9.22,8.79,.14,5.2-3.87,9.48-8.98,9.57-5.08,.09-9.14-3.78-9.28-8.85Z"/>
  <path class="cls-10" d="M119.33,97.25c2.24,0,4.49-.03,6.73,.01,1.87,.04,2.65,.89,2.63,2.71-.04,2.78-1.48,4.35-4.4,4.8-2.95,.46-2.96,.46-2.96,3.46,0,9.48,.01,18.96-.03,28.43,0,1,.27,1.65,1.08,2.25,2.78,2.09,5.51,4.24,8.25,6.38,1.27,.99,1.58,2.18,.76,3.14-1.03,1.19-2.03,.73-3.07-.08-2.65-2.07-5.38-4.04-8-6.16-.89-.72-1.45-.65-2.27,.02-2.53,2.04-5.13,4-7.68,6.01-1.04,.82-2.06,1.53-3.2,.26-.91-1.02-.54-2.17,.97-3.36,2.7-2.11,5.37-4.24,8.1-6.3,.79-.6,1.12-1.22,1.12-2.23-.04-9.98-.04-19.97,0-29.95,0-1.14-.3-1.61-1.47-1.61-.83,0-1.67-.21-2.48-.4-2.63-.63-3.98-2.75-3.47-5.43,.26-1.35,1.09-2.01,2.49-1.99,2.3,.02,4.6,0,6.9,0v.02Z"/>
</svg>
