<svg viewBox="0 0 120 120" xmlns="http://www.w3.org/2000/svg">
  <defs>
    <linearGradient id="plate" x1="16" y1="8" x2="105" y2="112" gradientUnits="userSpaceOnUse">
      <stop offset="0" stop-color="#141A24" />
      <stop offset="0.55" stop-color="#0F1720" />
      <stop offset="1" stop-color="#182015" />
    </linearGradient>
    <radialGradient id="mint-glow" cx="42%" cy="34%" r="54%">
      <stop offset="0" stop-color="#2DD4BF" stop-opacity="0.36" />
      <stop offset="1" stop-color="#2DD4BF" stop-opacity="0" />
    </radialGradient>
    <radialGradient id="warm-glow" cx="76%" cy="80%" r="50%">
      <stop offset="0" stop-color="#F59E0B" stop-opacity="0.28" />
      <stop offset="1" stop-color="#F59E0B" stop-opacity="0" />
    </radialGradient>
    <linearGradient id="omega" x1="28" y1="25" x2="92" y2="88" gradientUnits="userSpaceOnUse">
      <stop offset="0" stop-color="#5EEAD4" />
      <stop offset="0.54" stop-color="#38BDF8" />
      <stop offset="1" stop-color="#A3E635" />
    </linearGradient>
    <linearGradient id="links" x1="38" y1="40" x2="68" y2="68" gradientUnits="userSpaceOnUse">
      <stop offset="0" stop-color="#38BDF8" />
      <stop offset="1" stop-color="#FBBF24" />
    </linearGradient>
    <filter id="soft-shadow" x="-20%" y="-20%" width="140%" height="140%">
      <feDropShadow dx="0" dy="8" stdDeviation="8" flood-color="#000000" flood-opacity="0.32" />
    </filter>
  </defs>
  <g transform="translate(10,10)">
    <rect x="0" y="0" width="100" height="100" rx="22.37" ry="22.37" fill="url(#plate)" />
    <rect x="0" y="0" width="100" height="100" rx="22.37" ry="22.37" fill="url(#mint-glow)" />
    <rect x="0" y="0" width="100" height="100" rx="22.37" ry="22.37" fill="url(#warm-glow)" />
    <path d="M16 17C16 16.4477 16.4477 16 17 16H83C83.5523 16 84 16.4477 84 17V83C84 83.5523 83.5523 84 83 84H17C16.4477 84 16 83.5523 16 83V17Z" fill="#FFFFFF" opacity="0.035" />

    <g filter="url(#soft-shadow)">
      <path
        d="M24 72H37V63C27 57 22 48 22 38C22 23 34 14 50 14C66 14 78 23 78 38C78 48 73 57 63 63V72H76"
        fill="none"
        stroke="url(#omega)"
        stroke-width="8"
        stroke-linecap="round"
        stroke-linejoin="round"
      />

      <path
        d="M50 44L37 35M50 44L63 35M50 44V59"
        fill="none"
        stroke="url(#links)"
        stroke-width="3"
        stroke-linecap="round"
        stroke-linejoin="round"
        opacity="0.9"
      />

      <circle cx="37" cy="35" r="4.8" fill="#38BDF8" />
      <circle cx="63" cy="35" r="4.8" fill="#A3E635" />
      <circle cx="50" cy="59" r="4.8" fill="#5EEAD4" />
      <rect x="45" y="39" width="10" height="10" rx="2.5" fill="#FBBF24" transform="rotate(45 50 44)" />
    </g>
  </g>
</svg>
